<svg xmlns="http://www.w3.org/2000/svg" viewBox="0 0 991.78 201.09"><defs><style>.cls-1,.cls-2{fill:none;stroke:#000;stroke-linecap:round;stroke-linejoin:round;}.cls-1{stroke-width:7.17px;}.cls-2{stroke-width:3.59px;}</style></defs><g id="图层_2"><g id="图层_1-2"><g id="_18_0_Layer0_0_FILL"><path d="M248.21,109.7H212l-9.75,73.41-1.19,2.33a3.48,3.48,0,0,1-2.57.9H149.22l-1.92-.9a2.78,2.78,0,0,1-.83-2.33l9.92-73.41H120.28l-10,73.41a15.14,15.14,0,0,0,3.4,12.32,13.92,13.92,0,0,0,11.3,5.26h94a18.44,18.44,0,0,0,12.73-5.26,19.39,19.39,0,0,0,6.64-12.32l9.86-73.41m187.3-76.52-.84,5.5a8.08,8.08,0,0,0,1.74,6.16,6.46,6.46,0,0,0,5.26,2.51h22.24l-12,37L450.1,59a7,7,0,0,0-2.16-4.78,6.55,6.55,0,0,0-4.9-2h-11.3l4.43,68-22.24,55.6h14.7a13.7,13.7,0,0,0,8.31-2.63,19,19,0,0,0,5.92-7.95l2.75-7.54.72,5.56a15,15,0,0,0,4.9,9,13.24,13.24,0,0,0,9.09,3.53h8.25l-9-51.17,26.9-77.42,1.86-14H435.51M357,34.49a6.21,6.21,0,0,0-1.74,3.35L354,47.35h4.6L345,149a5.86,5.86,0,0,0-3.41,1.49,6.17,6.17,0,0,0-1.79,3.53l-1,9.14,43.88-2.15-1.79,13.63h23.31a4.64,4.64,0,0,0,3.41-1.37,5.41,5.41,0,0,0,1.74-3.23l1.31-10.28a5.51,5.51,0,0,0,3.41-1.56,5.81,5.81,0,0,0,1.79-3.41l1.2-9.56-4.43.36,12.92-98.28A4.94,4.94,0,0,0,429,46a5.81,5.81,0,0,0,1.74-3.23l1.19-9.56h-71.5A5.1,5.1,0,0,0,357,34.49m30,12.86h10.82L384.46,147l-10.76.66L386.91,47.35M276.67,86.27l-.84,7h27.92l-10.94,82.5L284,175.4,295,105.75H276.67l-14.89,94.94h7.54a16.51,16.51,0,0,0,8.13-1.92q3.53-1.85,4.42-6.75l165.9,8.49q26.18,1.67,30.78-1.44T492,186.46l-169.06-9.21,5.74-42.92h6.7a5.75,5.75,0,0,0,3.76-1.38,6.52,6.52,0,0,0,1.91-3.94l1.2-8.85H330.47l3.59-26.9h5.74a7.43,7.43,0,0,0,5.2-1.91,9,9,0,0,0,2.69-5.26l.9-7H330.11l3.23-24.57h10.58a7.69,7.69,0,0,0,5.38-2.15A9.34,9.34,0,0,0,352.17,47l.84-6.64H290.72a7.87,7.87,0,0,0-5.44,2.1,10.3,10.3,0,0,0-2.93,5.61l-.84,6.46h20.63l-3.23,24.57H284.56a7.23,7.23,0,0,0-5.14,2,8.32,8.32,0,0,0-2,2.69,9.77,9.77,0,0,0-.78,2.52m-145.75-2.1a8.12,8.12,0,0,0-5.62,2.1,9.16,9.16,0,0,0-3,5.73l-.89,6.4H242.65a8.49,8.49,0,0,0,5.68-2.09,8.93,8.93,0,0,0,2.87-5.62l1-6.52H130.92m20.45-51.89a14.19,14.19,0,0,0-9.15,3.29,24.7,24.7,0,0,0-6.58,8.19L122.85,75.62h37.31l8.9-24.15q2.22-4.78,7-4.78h33.71c3.07,0,4.89,1.59,5.44,4.78l2.93,24.15h37.13L251,43.76a16.15,16.15,0,0,0-4.42-8.19,11.67,11.67,0,0,0-8.43-3.29h-86.8M56.61,51.83a8.51,8.51,0,0,0-6.09,2.39,10.23,10.23,0,0,0-3.35,6l-.84,7.17H64.62l-9.56,69.11-4.31.48a18.32,18.32,0,0,0-10.64,5.26,19.74,19.74,0,0,0-5.56,11.06l-.35,2.87,18.47-2.33-3.41,26a7,7,0,0,1-2.45,4.43,7.11,7.11,0,0,1-4.9,2.21H30.61L28.7,200.69H63.31a20.68,20.68,0,0,0,11.9-3.77,29.35,29.35,0,0,0,2.45-2A23.89,23.89,0,0,0,85.19,181l4.12-31.27,10.23-1.25a9.65,9.65,0,0,0,5.44-2.81,9.49,9.49,0,0,0,2.81-5.56l1.37-10.1-17.51,2.39,8.78-65h9a8.66,8.66,0,0,0,6.1-2.45,9.94,9.94,0,0,0,3.17-6.15l1.07-7H56.61M713.14,155.19l.71-4.42h-75.8L641,131.94h73.23q5.5,0,6.82-6.4l1.25-8.31H643l1.26-8.73H612.7a3.86,3.86,0,0,0-2.51,1.2,5,5,0,0,0-1.43,2.93l-.48,4.6h-46l3.46-7.23H535.58q-3.41,0-5.73,3.94l-13.4,28.16v1.62h20.93a18,18,0,0,0,10.1-3,25.67,25.67,0,0,0,8.07-8.79h50.52L603,150.77H528.23a9.07,9.07,0,0,0-5.74,2.09,8.77,8.77,0,0,0-3.23,5.74l-.83,6.88h82.62l-2.52,17.63H515.86a5.53,5.53,0,0,0-4.13,1.91,7.28,7.28,0,0,0-2.15,4.37l-1.44,11.12H709.37a5.18,5.18,0,0,0,3.17-1,4.27,4.27,0,0,0,1.67-2.75L716,183.11h-82.5l2.39-17.63h67.07a9,9,0,0,0,6.64-2.93,13.57,13.57,0,0,0,3.59-7.36m134.33-26.3a35.77,35.77,0,0,0-10.71,6.16,39.28,39.28,0,0,0-13,21.7L815,198h31.51l16-71.2h-2.81a34.84,34.84,0,0,0-12.19,2.09m72.39-2.09a4.33,4.33,0,0,0-2.87,1.07,4.85,4.85,0,0,0-1,3l1.37,33.54a37.16,37.16,0,0,0,2.09,13,33.69,33.69,0,0,0,6.64,10.82A28.43,28.43,0,0,0,948,198l-.18-71.2h-28m43.22-58.65h-26.9c-2.87,0-5,1.58-6.34,4.72l-13.21,43.35h31.75l14.7-48.07M834.31,49.62l-.83,7.71h48.6L865.7,180.54a8.3,8.3,0,0,1-2.27,4.6,6.27,6.27,0,0,1-4.61,2.1h-6.51l-2,13.45h29.59A19.66,19.66,0,0,0,893.68,195a27,27,0,0,0,4.84-6.34,26.22,26.22,0,0,0,2.39-7.59L917,57.33h42.33a7.88,7.88,0,0,0,5.08-1.79,7.78,7.78,0,0,0,2.45-4.79L968,43.1H919.08l1.5-11.48H890.45A5.21,5.21,0,0,0,886.68,33a5.76,5.76,0,0,0-2,3.77l-.9,6.33h-42a7.84,7.84,0,0,0-5.09,1.8,7.72,7.72,0,0,0-2.45,4.72m-64,50.28H761a5.26,5.26,0,0,0-3.76,1.61,5.73,5.73,0,0,0-1.62,3.59l-1.31,8.66h14l-9.44,72-12,.72a4.61,4.61,0,0,0-2.75,1.37l-1.49,2.93-1.26,9.69L802,196.56a6.77,6.77,0,0,0,4.78-2.09,7.08,7.08,0,0,0,2.4-4.54l1-7.36-15.72.9,9.38-69.71H814a4.46,4.46,0,0,0,3.11-1.13,5.75,5.75,0,0,0,1.49-3.11l1.2-9.62H805.62l5.92-45.5h10a5.28,5.28,0,0,0,3.77-1.49,6,6,0,0,0,2-3.77l1.25-8.43H768A5.61,5.61,0,0,0,764.55,42a6.38,6.38,0,0,0-1.91,3.76l-1.32,8.67h14.89l-5.86,45.5M527.87,82a13.57,13.57,0,0,0-.12,1.79,23,23,0,0,0,.48,6.7,18.36,18.36,0,0,0,3.23,7.11A14.43,14.43,0,0,0,544,104.2H706.14q7.89,0,14.35-6.64a26.12,26.12,0,0,0,7.23-13.81c.12-.59.22-1.19.3-1.79l6.22-50.81H575.76l-2,16H696.1l-4.49,36.58v.06a6.23,6.23,0,0,1-1.85,4.13A4.75,4.75,0,0,1,686,89.49H567.51a5.25,5.25,0,0,1-3.77-1.55,6.12,6.12,0,0,1-1.13-4.19v-.23l6.33-52.37H534.15Z"/></g><g id="_18_0_Layer0_0_MEMBER_0_FILL"><path d="M658.62,59.24l-16.33-7.17L631.83,37.48,619.94,50.93l-17.1,5.38L612,71.74l-.18,17.87,17.45-3.82,17,5.62L648,73.65Z"/></g><g id="_18_0_Layer0_0_MEMBER_1_FILL"><path d="M969.6,23.31a18.82,18.82,0,0,0-5.8-13.92,18.86,18.86,0,0,0-13.93-5.8,19.13,19.13,0,0,0-14,5.8,19.06,19.06,0,0,0-5.68,13.92A19.5,19.5,0,0,0,949.87,43,19,19,0,0,0,963.8,37.3,18.91,18.91,0,0,0,969.6,23.31Z"/></g><path id="_18_0_Layer0_0_MEMBER_1_1_STROKES" class="cls-1" d="M969.6,23.31a18.91,18.91,0,0,1-5.8,14A19,19,0,0,1,949.87,43a19.5,19.5,0,0,1-19.73-19.73,19.06,19.06,0,0,1,5.68-13.92,19.13,19.13,0,0,1,14-5.8,18.86,18.86,0,0,1,13.93,5.8A18.82,18.82,0,0,1,969.6,23.31Z"/><path id="_18_0_Layer0_0_MEMBER_2_1_STROKES"  class="cls-2" d="M970,13.42c1.16.06,2.3.15,3.41.27q10.39,1.08,10.76,4.12t-9.57,6.4a115.49,115.49,0,0,1-24.09,5,115.64,115.64,0,0,1-24.63.54q-10.29-1.08-10.64-4.12t9.44-6.4c1.16-.39,2.35-.76,3.59-1.11"/><g id="_18_0_Layer0_0_MEMBER_3_FILL"><path d="M988.19,17.4a4.09,4.09,0,0,0-1.25-3,3.9,3.9,0,0,0-2.87-1.14,4.07,4.07,0,0,0-2.93,1.14,4.16,4.16,0,0,0-1.2,3,3.73,3.73,0,0,0,1.2,2.81,3.89,3.89,0,0,0,2.93,1.25,3.74,3.74,0,0,0,2.87-1.25A3.67,3.67,0,0,0,988.19,17.4Z"/></g><path id="_18_0_Layer0_0_MEMBER_3_1_STROKES" class="cls-1" d="M988.19,17.4a3.67,3.67,0,0,1-1.25,2.81,3.74,3.74,0,0,1-2.87,1.25,3.89,3.89,0,0,1-2.93-1.25,3.73,3.73,0,0,1-1.2-2.81,4.16,4.16,0,0,1,1.2-3,4.07,4.07,0,0,1,2.93-1.14,3.9,3.9,0,0,1,2.87,1.14A4.09,4.09,0,0,1,988.19,17.4Z"/><g id="_18_0_Layer0_0_MEMBER_4_FILL"><path d="M396.11,70.72a9.92,9.92,0,0,0-7.29-3,10.21,10.21,0,0,0-10.34,10.34,9.91,9.91,0,0,0,3,7.3,10,10,0,0,0,7.35,3,10.41,10.41,0,0,0,10.34-10.35A10,10,0,0,0,396.11,70.72Z"/></g><g id="_18_0_Layer0_0_MEMBER_5_FILL"><path d="M394.38,116.45a10,10,0,0,0-3.05-7.35,9.92,9.92,0,0,0-7.29-3,10.19,10.19,0,0,0-10.34,10.34,9.94,9.94,0,0,0,3,7.3,10.06,10.06,0,0,0,7.36,3,10.41,10.41,0,0,0,10.34-10.35Z"/></g><g id="_18_0_Layer0_0_MEMBER_6_FILL"><path d="M332.33,21.64a17.35,17.35,0,0,0-12.74-5.26,18,18,0,0,0-18,18.05,17.54,17.54,0,0,0,5.26,12.8,17.47,17.47,0,0,0,12.79,5.32,17.29,17.29,0,0,0,12.74-5.32,17.48,17.48,0,0,0,5.32-12.8A17.47,17.47,0,0,0,332.33,21.64Z"/></g><g id="_18_0_Layer0_0_MEMBER_7_FILL"><path d="M191.6,114.9l-4.06-10.7L178,110.48l-11.42.53,3,11.06-3,11,11.42.54,9.51,6.28,4.06-10.7,8.91-7.12Z"/></g><g id="_18_0_Layer0_0_MEMBER_8_FILL"><path d="M15,96.73a7.22,7.22,0,0,0-2.22-5.32,7.12,7.12,0,0,0-5.26-2.16A7.36,7.36,0,0,0,0,96.73,7.18,7.18,0,0,0,2.15,102a7.28,7.28,0,0,0,5.32,2.21A7.05,7.05,0,0,0,12.73,102,7.06,7.06,0,0,0,15,96.73Z"/></g><g id="_18_0_Layer0_0_MEMBER_9_FILL"><path d="M490.27,111.37a8.26,8.26,0,0,0-8.25,8.31,8.16,8.16,0,0,0,8.25,8.25,8.28,8.28,0,0,0,0-16.56Z"/></g><g id="_18_0_Layer0_0_MEMBER_10_FILL"><path d="M733.1,160.39a7.25,7.25,0,0,0-5.32,2.22,7.52,7.52,0,1,0,10.64,10.64,7.54,7.54,0,0,0-5.32-12.86Z"/></g><g id="_18_0_Layer0_0_MEMBER_11_FILL"><path d="M861.87,77.66a18.94,18.94,0,0,0-13.93-5.74,19.58,19.58,0,0,0-19.72,19.73,19.73,19.73,0,1,0,33.65-14Z"/></g><g id="_18_0_Layer0_0_MEMBER_12_FILL"><path d="M100.67,14.71,95.29.6,82.74,8.91l-15.07.71,4,14.59-4,14.53,15.07.72,12.55,8.25,5.38-14.11,11.72-9.39Z"/></g></g></g></svg>